<svg xmlns="http://www.w3.org/2000/svg" width="101.38095092773438" height="101.38095092773438"><rect id="backgroundrect" width="100%" height="100%" x="0" y="0" fill="none" stroke="none" style="" class=""/><defs><style>.cls-1{fill:#111}.cls-2{fill:#00c569}</style></defs><title>Search</title><g class="currentLayer" style=""><title>Layer 1</title><g class="selected" stroke="#000000" stroke-opacity="1" fill="#04b804" fill-opacity="1"><path class="cls-1" d="M96.86664186078066,90.06511276978148 L76.57631556384547,69.77349938084406 A5.322372199932373,5.322702887039996 0 0 0 69.06351826064596,69.77349938084406 A33.60585560886806,33.607987976447 0 1 1 78.51696195061017,38.356082267655395 A34.00934870199824,34.01151418809985 0 0 1 78.17110936687618,54.304984997852614 A4.803579033295987,4.803883472057759 0 1 0 87.47083868021264,56.78378886943442 A43.309087542691614,43.31184219296913 0 1 0 72.63738228091985,79.49655952828896 L90.06477593132378,96.90584283399174 A4.803579033295987,4.803883472057759 0 0 0 96.86664186078066,96.90584283399174 A4.803579033295987,4.803883472057759 0 0 0 96.86664186078066,90.06511276978148 z" id="svg_1" fill="#04b804" fill-opacity="1" stroke="#000000" stroke-opacity="1"/><path class="cls-2" d="M60.09042758760196,60.06964787373289 a4.726723455965471,4.727023981401188 0 0 0 -5.764296897518867,-0.5188197052757398 a16.37060318895358,16.37164403314557 0 0 1 -16.639603710837797,0.3266642588773183 a4.630651841006823,4.630946258201977 0 0 0 -5.514510698626384,0.6341129731147939 l-0.288214844875944,0.2690176249577913 a4.630651841006823,4.630946258201977 0 0 0 0.8070015656526417,7.3211225077798865 a26.03540765379355,26.037062986986207 0 0 0 26.90005218842138,-0.5380352499155826 a4.630651841006823,4.630946258201977 0 0 0 0.7877872426609123,-7.186613695300991 z" id="svg_2" fill="#04b804" fill-opacity="1" stroke="#000000" stroke-opacity="1"/></g></g></svg>