<svg xmlns="http://www.w3.org/2000/svg" fill="#000000" width="23" height="23"><rect id="backgroundrect" width="100%" height="100%" x="0" y="0" fill="none" stroke="none" style="" class=""/>
  
<g class="currentLayer" style=""><title>Layer 1</title><path d="M11.439557412496669,0.2919940221074711 A11.113027083524685,11.194659302077525 0 1 0 22.552584496021353,11.486653324184996 A11.12556628241726,11.207290609323369 0 0 0 11.439557412496669,0.2919940221074711 zm0,19.90161653702671 a8.643465509408088,8.706957234949186 0 1 1 8.643465509408088,-8.706957234949186 A8.653304654312965,8.716868654601637 0 0 1 11.439557412496669,20.193610559134182 zM13.085931795241066,6.925866201116375 v9.5361912573253 a1.2347807870582983,1.2438510335641695 0 0 1 -2.4695615741165966,0 V9.24948358606704 l-0.5500639711147954,0.3692682755893629 a1.2348085696260072,1.2438790202124248 0 1 1 -1.3694336318870057,-2.070250112126285 l2.4695615741165966,-1.6577600862056225 A1.2348538449215327,1.2439246280836553 0 0 1 13.085931795241066,6.925866201116375 z" id="svg_1" class="selected" fill="#1a1aeb" fill-opacity="1"/></g></svg>