<svg xmlns="http://www.w3.org/2000/svg" fill="#000000" width="23" height="23"><rect id="backgroundrect" width="100%" height="100%" x="0" y="0" fill="none" stroke="none" style="" class=""/>
  
<g class="currentLayer" style=""><title>Layer 1</title><path d="M11.490105114377938,0.22893666194399875 A11.25240531191386,11.321610770202728 0 1 0 22.7425104262918,11.550547432146729 A11.265101775907468,11.334385321021774 0 0 0 11.490105114377938,0.22893666194399875 zm0,20.127308035915963 a8.751870798155224,8.805697265713233 0 1 1 8.751870798155224,-8.805697265713233 A8.761833344413791,8.815721084434037 0 0 1 11.490105114377938,20.35624469785996 zm2.530550304928166,-9.254703962481123 a4.1675439783691095,4.193175546284343 0 0 1 -5.8938994621061225,5.929943135649541 a1.250277675773125,1.257967235217683 0 0 1 1.7681592113601534,-1.7790338879433285 A1.6669886268228598,1.677241075848977 0 1 0 11.073654635673387,12.389185266976561 a1.250237042087277,1.2579263516232355 0 0 1 -1.0243856391364543,-1.979172710630881 l1.5402459093248608,-2.2148351837045306 h-2.6002433274947614 a1.2502672568793183,1.257956752244748 0 0 1 0,-2.5159135044894954 h5.001069027517271 a1.250237042087277,1.2579263516232355 0 0 1 1.0243856391364543,1.979172710630881 l-1.908976812502471,2.744921386343772 A4.185805173545213,4.211549052948171 0 0 1 14.020655419306102,11.101540735378837 z" id="svg_1" class="selected" fill="#0bd50b" fill-opacity="1"/></g></svg>