<svg xmlns="http://www.w3.org/2000/svg" fill="#000000" width="23" height="23"><rect id="backgroundrect" width="100%" height="100%" x="0" y="0" fill="none" stroke="none" style="" class=""/>
  
<g class="currentLayer" style=""><title>Layer 1</title><path d="M11.45408632409631,0.27551031112670904 A11.15816324987922,11.153060756751474 0 1 0 22.61224957397553,11.428571067878183 A11.170753377412833,11.165645126972008 0 0 0 11.45408632409631,0.27551031112670904 zm0,19.827663567558176 a8.678571416572726,8.674602810806702 0 1 1 8.678571416572726,-8.674602810806702 A8.688450523701924,8.68447740033967 0 0 1 11.45408632409631,20.103173878684885 zm3.048235595275407,-9.024144898377347 l-3.0489422789478997,4.066623849672668 H13.933678157402802 a1.2397959166532466,1.2392289729723867 0 0 1 0,2.478457945944772 H9.01545734787604 c-0.013721441307559807,0.0005039531156754376 -0.027341632615259626,0.0007063605145942611 -0.04116432392267945,0.0007063605145942611 a1.2400769370610214,1.2395098648729268 0 0 1 -0.9785791823205185,-2.0002332891298638 l4.50102018510357,-6.003423073057698 a1.2402360442036588,1.2396688992577911 0 1 0 -2.1855845633048148,-1.152999290269724 A1.2397752533879691,1.2392083191561698 0 0 1 8.02749704311951,7.502631720053018 a3.7198092805714023,3.7181082567679686 0 1 1 6.510139429774809,3.5268807685669783 C14.526233449950903,11.046354643053498 14.514529776497698,11.062791982689168 14.502321919371715,11.07902898030754 z" id="svg_1" class="selected" fill="#eb1a1a" fill-opacity="1"/></g></svg>